<?xml version="1.0" encoding="UTF-8"?>
<svg width="1200pt" height="1200pt" version="1.1" viewBox="0 0 1200 1200" xmlns="http://www.w3.org/2000/svg">
 <g>
  <path d="m731 604.45c-8.6328-2.0781-14.863-9.6016-15.293-18.465-0.42969-8.8789 5.0391-16.961 13.438-19.871 18.652-6.4648 32.715-15.039 41.816-25.48 14.062-16.152 20.898-35.117 20.898-57.969 0-27.371-9.7266-49.676-29.746-68.203-20.195-18.68-50.547-28.152-90.215-28.152l-250.35-0.003906v427.38h229.34c6.7188 0 22.93-1.0742 62.09-6.2109 27.051-3.5234 40.742-8.8945 47.441-12.785 16.641-9.5898 29.375-22.234 38.984-38.672 9.5117-16.359 14.141-34.453 14.141-55.285 0-25.293-6.3281-45.441-19.316-61.574-12.93-16.039-34.199-27.719-63.223-34.711zm-203.75-143.46c0-11.047 8.9453-20 20-20h63.77c27.109 0 46.465 5.3516 59.16 16.359 13.184 11.453 20.137 27.695 20.137 46.992 0 25.625-10.879 40.605-19.98 48.652-12.773 11.191-32.48 16.621-60.273 16.621h-62.812c-11.055 0-20-8.9531-20-20zm159.34 274.16c-14.121 12.199-35.605 18.105-65.684 18.105h-73.652c-11.055 0-20-8.9531-20-20v-94.676c0-11.047 8.9453-20 20-20h73.32c30.391 0 51.934 5.625 65.879 17.199 14.648 12.199 22.363 29.035 22.363 48.703 0 20.559-7.6758 38.082-22.227 50.668z"/>
  <path d="m600 100c-275.6 0-500 224.2-500 500s224.4 500 500 500c275.8 0 500-224.2 500-500s-224.2-500-500-500zm233.95 676.16c-13.027 22.324-31.035 40.215-53.535 53.172-14.531 8.4102-34.902 14.238-62.246 17.812-33.633 4.4023-55.625 6.543-67.285 6.543h-249.34c-11.055 0-20-8.9531-20-20v-467.38c0-11.047 8.9453-20 20-20h270.35c50.059 0 89.551 13.055 117.38 38.797 28.242 26.141 42.578 58.965 42.578 97.559 0 32.473-10.332 60.809-30.742 84.238-4.668 5.3594-10.039 10.34-16.094 14.922 16.465 8.5938 29.961 19.363 40.332 32.246 18.711 23.203 28.184 52.363 28.184 86.672 0 27.707-6.582 53.078-19.59 75.422z"/>
 </g>
</svg>
